# xmcd
#
# Track frame offsets:
#	150
#	22513
#	33465
#	51140
#	62948
#	82819
#	100894
#	116654
#	130887
#	145297
#	156168
#	173740
#	191517
#	206583
#	223152
#	236909
#	247844
#	264825
#	281533
#	294513
#
# Disc length: 4120 seconds
#
# Revision: 0
# Processed by: cddbd v1.5.2PL0 Copyright (c) Steve Scherf et al.
# Submitted via: EasyCDDAExtractor 16.0.6.1
#
DISCID=1c101614
DTITLE=Συλλογικός δίσκος - Τα μεγάλα τραγούδια-Μ. Θεοδωράκης 03
DYEAR=2010
DGENRE=Λαϊκή
TTITLE0=Γλυκερία - Σαββατόβραδο [Τάσος Λειβαδίτης]
TTITLE1=Ψαριανός Δημήτρης - Αν θυμηθείς τ' όνειρό μου [Νίκος Γκάτσος]
TTITLE2=Μητσιάς Μανώλης - Βρέχει στη φτωχογειτονιά [Τάσος Λειβαδίτης]
TTITLE3=Φαραντούρη Μαρία - Λίγο ακόμα [Γιώργος Σεφέρης]
TTITLE4=Μακεδόνας Κώστας - Μάννα μου και Παναγιά [Τάσος Λειβαδίτης]
TTITLE5=Δημητριάδη Μαρία-χορωδία - Τη Ρωμιοσύνη μην την κλαις [Γιάννης Ρίτσος]
TTITLE6=Πουλόπουλος Γιάννης - Ο καϋμός [Δημήτρης Χριστοδούλου]
TTITLE7=Θεοδωράκης Μίκης - Διαβάζεις στην Αγία Γραφή [Brendan Francis Behan,Β.
TTITLE7=Ρώτας]
TTITLE8=Πρωτοψάλτη Άλκηστις - Μοιρολόϊ της βροχής [Τάσος Λειβαδίτης]
TTITLE9=Αρλέτα - Αφροδίτη (νανούρισμα) [Μιχάλης Κακογιάννης]
TTITLE10=Βενετσάνου Νένα - Χείλι μου μοσκομύριστο [Γιάννης Ρίτσος]
TTITLE11=Καλογιάννης Αντώνης - Βγήκ' η ζωή μας στο σφυρί [Φώντας Λάδης]
TTITLE12=Μπάσης Δημήτρης - Μπήκε ο Χάρος στο κελί [Λευτέρης Παπαδόπουλος]
TTITLE13=Γιαννάτου Σαβίνα - Κοιμήσου αγγελούδι μου [Κώστας Βίρβος]
TTITLE14=Ζορμπαλά Μαργαρίτα - Σκέπασε ατμός τον έρωτά μας [Γιάννης Θεοδωράκης]
TTITLE15=Βιτάλη Ελένη - Λιγνά κορίτσια [Γιάννης Ρίτσος]
TTITLE16=Φαραντούρη Μαρία - Κάτω από τα ρούχα μου [Μανόλης Αναγνωστάκης]
TTITLE17=Θεοδωράκης Μίκης - Ο λόγος ο στερνός [Μάνος Ελευθερίου]
TTITLE18=Μπιθικώτσης Γρηγόρης - Η Μαργαρίτα Μαργαρώ [Μίκης Θεοδωράκης]
TTITLE19=Άνευ ερμηνευτού - Του μικρού βοριά [οργ., κιθ. Ν. Μαυρουδής]
EXTD=
EXTT0=
EXTT1=
EXTT2=
EXTT3=
EXTT4=
EXTT5=
EXTT6=
EXTT7=
EXTT8=
EXTT9=
EXTT10=
EXTT11=
EXTT12=
EXTT13=
EXTT14=
EXTT15=
EXTT16=
EXTT17=
EXTT18=
EXTT19=
PLAYORDER=
